<svg width="200" height="49" viewBox="0 0 200 49" fill="none" xmlns="http://www.w3.org/2000/svg">
<g clip-path="url(#clip0_1_40)">
<path d="M64 48.1L49 1.59998H58.3C62 14.3 65.7 27 69.4 39.7H69.6C73.3 27 77.1 14.3 80.8 1.59998H89.8L74.8 48.1H64Z" fill="black"/>
<path d="M92.7 48.1V14.5H101.2V48.1H92.7Z" fill="black"/>
<path d="M186.6 31C186.6 43.3 177.7 48.9 168.8 48.9C159 48.9 151.5 42.4 151.5 31.6C151.5 20.6 159 13.8 169.4 13.8C179.7 13.8 186.6 20.8 186.6 31ZM159.8 31.6C159.8 37.4 163.4 41.9 169.1 41.9C174.5 41.9 178.3 37.6 178.3 31.5C178.3 26.7 175.7 21.3 169.1 21.3C162.5 21.3 159.8 26.5 159.8 31.6Z" fill="black"/>
<path d="M200 38.3H190.2V48.1H200V38.3Z" fill="url(#paint0_linear_1_40)"/>
<path d="M9.9 43.6C8 43.6 5.8 42.9 5.8 37.6V19.7H15.5V14.6H5.8V5H0V37.2C0 41.2 0.9 44.1 2.5 46C4.1 47.9 6.5 48.9 9.5 48.9C11.4 48.9 13.1 48.6 14.6 48.1L15.4 47.8V42.5L13.9 43C12.8 43.4 11.5 43.6 9.9 43.6Z" fill="black"/>
<path d="M50.5 32.6C50.5 28.2 49.4 13.9 34.8 13.9C23.1 13.9 18.5 23.8 18.5 31.2C18.5 41.3 25.5 48.9 34.5 48.9C37.2 48.9 41 48.3 44.4 46.1C45.9 45.2 47 44.2 47.7 43.5L44.3 39.8C43.6 40.5 42.5 41.5 40.9 42.4C38 43.9 35.5 43.8 34.7 43.8C27.9 43.8 24.9 38.3 24.5 33.8H50.7V32.6H50.5ZM24.4 28.6C24.7 25.9 26.4 19 34.8 19C40.7 19 44.4 22.6 44.7 28.6H24.4Z" fill="black"/>
<path d="M97.1 10.2H96.8C94 10.2 91.7 7.9 91.7 5.1C91.7 2.3 94 0 96.8 0H97.1C99.9 0 102.2 2.3 102.2 5.1C102.2 7.9 99.9 10.2 97.1 10.2Z" fill="url(#paint1_linear_1_40)"/>
<path d="M116.7 14.6V5H108.4C108.4 15.6 108.4 26.1 108.4 36.7C108.4 41.1 109.2 44.2 111 46.1C112.6 47.8 115.1 48.9 118.3 48.9C120.8 48.9 123 48.6 124.3 48.1V41.6C123.6 41.8 122.5 41.9 121 41.9C117.7 41.9 116.6 39.8 116.6 35.7V20.9H124.3V14.6H116.7Z" fill="black"/>
<path d="M147.9 20.9V14.6H139.9V5H131.6C131.6 15.6 131.6 26.1 131.6 36.7C131.6 41.1 132.5 44.2 134.2 46.1C135.8 47.8 138.4 48.9 141.5 48.9C144.1 48.9 146.2 48.6 147.5 48.1V41.6C146.7 41.8 145.7 41.9 144.2 41.9C141 41.9 139.9 39.8 139.9 35.7V20.9H147.9Z" fill="black"/>
</g>
<defs>
<linearGradient id="paint0_linear_1_40" x1="190.2" y1="38.2985" x2="199.94" y2="48.0383" gradientUnits="userSpaceOnUse">
<stop stop-color="#325EB7"/>
<stop offset="0.4944" stop-color="#3786B7"/>
<stop offset="1" stop-color="#7CE5E0"/>
</linearGradient>
<linearGradient id="paint1_linear_1_40" x1="91.8258" y1="-0.00178546" x2="102.312" y2="10.4844" gradientUnits="userSpaceOnUse">
<stop stop-color="#325EB7"/>
<stop offset="0.4944" stop-color="#3786B7"/>
<stop offset="1" stop-color="#7CE5E0"/>
</linearGradient>
<clipPath id="clip0_1_40">
<rect width="200" height="48.9" fill="white"/>
</clipPath>
</defs>
</svg>
